<svg xmlns="http://www.w3.org/2000/svg" xmlns:xlink="http://www.w3.org/1999/xlink" width="500" zoomAndPan="magnify" viewBox="0 0 375 374.999991" height="500" preserveAspectRatio="xMidYMid meet" version="1.2"><defs><clipPath id="dc9879013f"><path d="M 100 127.445312 L 120 127.445312 L 120 146 L 100 146 Z M 100 127.445312 "/></clipPath><clipPath id="23debbf3d1"><path d="M 107 169 L 127.355469 169 L 127.355469 190 L 107 190 Z M 107 169 "/></clipPath><clipPath id="7df3ba652f"><path d="M 10.355469 127.445312 L 82 127.445312 L 82 244.445312 L 10.355469 244.445312 Z M 10.355469 127.445312 "/></clipPath></defs><g id="740988ce47"><path style=" stroke:none;fill-rule:nonzero;fill:#ffffff;fill-opacity:1;" d="M 34.175781 151.359375 C 34.175781 149.351562 32.535156 147.707031 30.527344 147.707031 L 21.398438 147.707031 C 19.390625 147.707031 17.75 149.351562 17.75 151.359375 L 17.75 160.484375 C 17.75 162.492188 19.390625 164.136719 21.398438 164.136719 L 30.527344 164.136719 C 32.535156 164.136719 34.175781 162.492188 34.175781 160.484375 Z M 34.175781 151.359375 "/><path style=" stroke:none;fill-rule:nonzero;fill:#ffffff;fill-opacity:1;" d="M 54.253906 151.359375 C 54.253906 149.351562 52.613281 147.707031 50.605469 147.707031 L 41.476562 147.707031 C 39.46875 147.707031 37.828125 149.351562 37.828125 151.359375 L 37.828125 160.484375 C 37.828125 162.492188 39.46875 164.136719 41.476562 164.136719 L 50.605469 164.136719 C 52.613281 164.136719 54.253906 162.492188 54.253906 160.484375 Z M 41.476562 160.484375 L 41.476562 151.359375 L 50.605469 151.359375 L 50.605469 160.484375 Z M 41.476562 160.484375 "/><path style=" stroke:none;fill-rule:nonzero;fill:#ffffff;fill-opacity:1;" d="M 34.175781 171.4375 C 34.175781 169.429688 32.535156 167.785156 30.527344 167.785156 L 21.398438 167.785156 C 19.390625 167.785156 17.75 169.429688 17.75 171.4375 L 17.75 180.5625 C 17.75 182.570312 19.390625 184.214844 21.398438 184.214844 L 30.527344 184.214844 C 32.535156 184.214844 34.175781 182.570312 34.175781 180.5625 Z M 21.398438 180.5625 L 21.398438 171.4375 L 30.527344 171.4375 L 30.527344 180.5625 Z M 21.398438 180.5625 "/><path style=" stroke:none;fill-rule:nonzero;fill:#ffffff;fill-opacity:1;" d="M 54.253906 171.4375 C 54.253906 169.429688 52.613281 167.785156 50.605469 167.785156 L 41.476562 167.785156 C 39.46875 167.785156 37.828125 169.429688 37.828125 171.4375 L 37.828125 180.5625 C 37.828125 182.570312 39.46875 184.214844 41.476562 184.214844 L 50.605469 184.214844 C 52.613281 184.214844 54.253906 182.570312 54.253906 180.5625 Z M 54.253906 171.4375 "/><g clip-rule="nonzero" clip-path="url(#dc9879013f)"><path style=" stroke:none;fill-rule:nonzero;fill:#ffffff;fill-opacity:1;" d="M 118.777344 140.316406 C 119.144531 139.402344 119.144531 138.488281 118.777344 137.578125 L 115.402344 129.730469 C 115.035156 128.90625 114.304688 128.175781 113.484375 127.8125 C 112.574219 127.445312 111.660156 127.445312 110.746094 127.8125 L 102.898438 131.28125 C 102.078125 131.644531 101.347656 132.375 100.980469 133.195312 C 100.617188 134.109375 100.617188 135.023438 100.980469 135.933594 L 104.359375 143.785156 C 104.722656 144.605469 105.453125 145.335938 106.273438 145.699219 C 106.730469 145.882812 107.097656 145.972656 107.554688 145.972656 C 108.007812 145.972656 108.464844 145.882812 108.921875 145.699219 L 116.769531 142.324219 C 117.773438 141.867188 118.414062 141.136719 118.777344 140.316406 Z M 118.777344 140.316406 "/></g><path style=" stroke:none;fill-rule:nonzero;fill:#ffffff;fill-opacity:1;" d="M 111.933594 166.597656 C 113.484375 165.320312 113.667969 162.949219 112.296875 161.488281 L 106.367188 154.550781 C 105.726562 153.824219 104.816406 153.367188 103.902344 153.273438 C 102.898438 153.183594 101.984375 153.546875 101.253906 154.1875 L 94.320312 160.121094 C 92.769531 161.398438 92.585938 163.769531 93.953125 165.230469 L 99.886719 172.167969 C 100.527344 172.894531 101.4375 173.351562 102.351562 173.445312 C 102.441406 173.445312 102.535156 173.445312 102.625 173.445312 C 103.539062 173.445312 104.359375 173.171875 104.996094 172.53125 Z M 102.625 169.792969 L 96.691406 162.859375 L 103.628906 156.925781 L 109.5625 163.863281 Z M 102.625 169.792969 "/><path style=" stroke:none;fill-rule:nonzero;fill:#ffffff;fill-opacity:1;" d="M 82.636719 150.8125 L 91.035156 154.371094 C 92.859375 155.101562 95.050781 154.277344 95.78125 152.453125 L 99.339844 144.058594 C 100.160156 142.230469 99.246094 140.042969 97.421875 139.3125 L 88.933594 135.660156 C 87.109375 134.839844 84.917969 135.753906 84.1875 137.578125 C 84.1875 137.578125 80.628906 145.972656 80.628906 145.972656 C 80.355469 146.613281 80.355469 147.25 80.449219 147.890625 C 80.628906 149.167969 81.453125 150.261719 82.636719 150.8125 Z M 82.636719 150.8125 "/><path style=" stroke:none;fill-rule:nonzero;fill:#ffffff;fill-opacity:1;" d="M 100.34375 181.839844 C 99.613281 181.109375 98.699219 180.746094 97.789062 180.746094 C 96.875 180.746094 95.871094 181.109375 95.230469 181.839844 L 88.753906 188.320312 C 88.023438 189.050781 87.65625 189.960938 87.65625 190.875 C 87.65625 191.878906 88.023438 192.792969 88.753906 193.429688 L 95.230469 199.910156 C 95.960938 200.640625 96.875 201.003906 97.789062 201.003906 C 98.699219 201.003906 99.703125 200.640625 100.34375 199.910156 L 106.824219 193.429688 C 107.554688 192.699219 107.917969 191.789062 107.917969 190.875 C 107.917969 189.871094 107.554688 188.957031 106.824219 188.320312 Z M 100.34375 181.839844 "/><g clip-rule="nonzero" clip-path="url(#23debbf3d1)"><path style=" stroke:none;fill-rule:nonzero;fill:#ffffff;fill-opacity:1;" d="M 119.78125 170.707031 C 118.414062 169.335938 116.039062 169.335938 114.671875 170.707031 L 108.28125 177.09375 C 106.914062 178.464844 106.914062 180.835938 108.28125 182.207031 L 114.671875 188.59375 C 115.402344 189.324219 116.222656 189.6875 117.226562 189.6875 C 118.230469 189.6875 119.144531 189.324219 119.78125 188.59375 L 126.171875 182.207031 C 126.902344 181.476562 127.265625 180.652344 127.265625 179.648438 C 127.265625 178.644531 126.902344 177.734375 126.171875 177.09375 Z M 119.78125 170.707031 "/></g><path style=" stroke:none;fill-rule:nonzero;fill:#ffffff;fill-opacity:1;" d="M 100.527344 206.9375 C 100.160156 207.851562 100.160156 208.855469 100.527344 209.765625 L 104.175781 218.164062 C 104.542969 219.074219 105.269531 219.714844 106.183594 220.078125 C 106.640625 220.261719 107.097656 220.355469 107.554688 220.355469 C 108.007812 220.355469 108.558594 220.261719 109.011719 220.078125 L 117.410156 216.429688 C 118.320312 216.0625 118.960938 215.335938 119.324219 214.421875 C 119.691406 213.507812 119.691406 212.503906 119.324219 211.59375 L 115.675781 203.195312 C 115.308594 202.285156 114.582031 201.644531 113.667969 201.28125 C 112.753906 200.914062 111.75 200.914062 110.839844 201.28125 L 102.441406 204.929688 C 101.621094 205.296875 100.890625 206.023438 100.527344 206.9375 Z M 112.296875 204.65625 L 115.949219 213.050781 L 107.554688 216.703125 L 103.902344 208.308594 Z M 112.296875 204.65625 "/><path style=" stroke:none;fill-rule:nonzero;fill:#ffffff;fill-opacity:1;" d="M 34.175781 191.515625 C 34.175781 189.507812 32.535156 187.863281 30.527344 187.863281 L 21.398438 187.863281 C 19.390625 187.863281 17.75 189.507812 17.75 191.515625 L 17.75 200.640625 C 17.75 202.648438 19.390625 204.292969 21.398438 204.292969 L 30.527344 204.292969 C 32.535156 204.292969 34.175781 202.648438 34.175781 200.640625 Z M 34.175781 191.515625 "/><path style=" stroke:none;fill-rule:nonzero;fill:#ffffff;fill-opacity:1;" d="M 54.253906 191.515625 C 54.253906 189.507812 52.613281 187.863281 50.605469 187.863281 L 41.476562 187.863281 C 39.46875 187.863281 37.828125 189.507812 37.828125 191.515625 L 37.828125 200.640625 C 37.828125 202.648438 39.46875 204.292969 41.476562 204.292969 L 50.605469 204.292969 C 52.613281 204.292969 54.253906 202.648438 54.253906 200.640625 Z M 41.476562 200.640625 L 41.476562 191.515625 L 50.605469 191.515625 L 50.605469 200.640625 Z M 41.476562 200.640625 "/><path style=" stroke:none;fill-rule:nonzero;fill:#ffffff;fill-opacity:1;" d="M 30.527344 207.941406 L 21.398438 207.941406 C 19.390625 207.941406 17.75 209.585938 17.75 211.59375 L 17.75 220.71875 C 17.75 222.726562 19.390625 224.367188 21.398438 224.367188 L 30.527344 224.367188 C 32.535156 224.367188 34.175781 222.726562 34.175781 220.71875 L 34.175781 211.59375 C 34.175781 209.585938 32.535156 207.941406 30.527344 207.941406 Z M 21.398438 220.71875 L 21.398438 211.59375 L 30.527344 211.59375 L 30.527344 220.71875 Z M 21.398438 220.71875 "/><path style=" stroke:none;fill-rule:nonzero;fill:#ffffff;fill-opacity:1;" d="M 50.605469 207.941406 L 41.476562 207.941406 C 39.46875 207.941406 37.828125 209.585938 37.828125 211.59375 L 37.828125 220.71875 C 37.828125 222.726562 39.46875 224.367188 41.476562 224.367188 L 50.605469 224.367188 C 52.613281 224.367188 54.253906 222.726562 54.253906 220.71875 L 54.253906 211.59375 C 54.253906 209.585938 52.613281 207.941406 50.605469 207.941406 Z M 50.605469 207.941406 "/><path style=" stroke:none;fill-rule:nonzero;fill:#ffffff;fill-opacity:1;" d="M 57.90625 220.71875 C 57.90625 222.726562 59.546875 224.367188 61.554688 224.367188 L 70.683594 224.367188 C 72.691406 224.367188 74.242188 222.816406 74.332031 220.902344 L 71.960938 219.898438 C 71.503906 219.714844 71.136719 219.441406 70.773438 219.257812 L 70.773438 220.808594 L 61.554688 220.808594 L 61.554688 211.59375 L 67.578125 211.59375 C 67.671875 211.136719 67.761719 210.679688 67.945312 210.316406 L 68.949219 207.941406 L 61.554688 207.941406 C 59.546875 207.941406 57.90625 209.585938 57.90625 211.59375 Z M 57.90625 220.71875 "/><path style=" stroke:none;fill-rule:nonzero;fill:#ffffff;fill-opacity:1;" d="M 57.90625 200.640625 C 57.90625 202.648438 59.546875 204.292969 61.554688 204.292969 L 70.5 204.292969 L 71.503906 201.917969 C 72.050781 200.550781 73.054688 199.363281 74.242188 198.632812 L 74.242188 191.515625 C 74.242188 189.507812 72.597656 187.863281 70.589844 187.863281 L 61.554688 187.863281 C 59.546875 187.863281 57.90625 189.507812 57.90625 191.515625 Z M 57.90625 200.640625 "/><path style=" stroke:none;fill-rule:nonzero;fill:#ffffff;fill-opacity:1;" d="M 71.777344 165.59375 L 68.21875 173.992188 C 67.398438 175.816406 68.308594 178.007812 70.132812 178.738281 C 70.132812 178.738281 78.53125 182.296875 78.53125 182.296875 C 80.355469 183.027344 82.546875 182.207031 83.277344 180.378906 L 86.835938 171.984375 C 87.65625 170.160156 86.746094 167.96875 84.917969 167.238281 C 84.917969 167.238281 76.523438 163.679688 76.523438 163.679688 C 74.789062 162.859375 72.507812 163.863281 71.777344 165.59375 Z M 79.992188 179.011719 L 71.59375 175.453125 L 75.152344 167.054688 L 83.550781 170.613281 Z M 79.992188 179.011719 "/><path style=" stroke:none;fill-rule:nonzero;fill:#ffffff;fill-opacity:1;" d="M 86.5625 218.070312 L 90.121094 209.675781 C 90.941406 207.851562 90.03125 205.660156 88.203125 204.929688 L 79.808594 201.371094 C 78.894531 201.003906 77.890625 201.003906 76.980469 201.371094 C 76.066406 201.734375 75.335938 202.464844 74.972656 203.378906 C 74.972656 203.378906 71.230469 212.324219 71.230469 212.6875 C 71.046875 214.148438 71.6875 215.609375 72.871094 216.339844 C 73.054688 216.429688 81.816406 220.171875 81.816406 220.171875 C 83.550781 220.808594 85.742188 219.898438 86.5625 218.070312 Z M 86.5625 218.070312 "/><g clip-rule="nonzero" clip-path="url(#7df3ba652f)"><path style=" stroke:none;fill-rule:nonzero;fill:#ffffff;fill-opacity:1;" d="M 21.398438 244.445312 L 70.683594 244.445312 C 76.707031 244.445312 81.632812 239.519531 81.632812 233.496094 L 81.632812 223.820312 C 81.175781 223.730469 80.722656 223.546875 80.355469 223.457031 L 77.984375 222.453125 L 77.984375 226.285156 C 77.984375 230.300781 74.699219 233.585938 70.683594 233.585938 L 21.398438 233.585938 C 17.382812 233.585938 14.097656 230.300781 14.097656 226.285156 L 14.097656 138.582031 C 14.097656 134.566406 17.382812 131.28125 21.398438 131.28125 L 32.441406 131.28125 L 34.269531 133.46875 C 37.097656 136.664062 41.113281 138.582031 45.128906 138.582031 C 49.144531 138.582031 53.160156 136.664062 55.988281 133.46875 L 57.8125 131.28125 L 70.683594 131.28125 C 74.699219 131.28125 77.984375 134.566406 77.984375 138.582031 L 77.984375 142.960938 L 80.8125 136.207031 C 80.902344 135.933594 80.996094 135.753906 81.175781 135.570312 C 79.808594 130.914062 75.609375 127.628906 70.683594 127.628906 L 21.398438 127.628906 C 15.375 127.628906 10.449219 132.558594 10.449219 138.582031 L 10.449219 233.496094 C 10.449219 239.519531 15.375 244.445312 21.398438 244.445312 Z M 21.398438 237.144531 L 70.683594 237.144531 C 73.421875 237.144531 75.976562 236.140625 77.890625 234.40625 C 77.4375 238.058594 74.332031 240.796875 70.683594 240.796875 L 21.398438 240.796875 C 17.65625 240.796875 14.644531 237.96875 14.191406 234.40625 C 16.105469 236.140625 18.660156 237.144531 21.398438 237.144531 Z M 52.976562 131.28125 C 50.878906 133.652344 48.050781 134.929688 45.128906 134.929688 C 42.207031 134.929688 39.46875 133.652344 37.28125 131.28125 Z M 52.976562 131.28125 "/></g><path style=" stroke:none;fill-rule:nonzero;fill:#ffffff;fill-opacity:1;" d="M 57.90625 180.5625 C 57.90625 182.570312 59.546875 184.214844 61.554688 184.214844 L 70.683594 184.214844 C 71.320312 184.214844 71.960938 184.03125 72.507812 183.757812 L 68.765625 182.207031 C 67.851562 181.839844 67.03125 181.292969 66.394531 180.5625 L 61.554688 180.5625 L 61.554688 171.4375 L 65.390625 171.4375 L 66.941406 167.785156 L 61.554688 167.785156 C 59.546875 167.785156 57.90625 169.429688 57.90625 171.4375 Z M 57.90625 180.5625 "/><path style=" stroke:none;fill-rule:nonzero;fill:#ffffff;fill-opacity:1;" d="M 70.683594 147.707031 L 61.554688 147.707031 C 59.546875 147.707031 57.90625 149.351562 57.90625 151.359375 L 57.90625 160.484375 C 57.90625 162.492188 59.546875 164.136719 61.554688 164.136719 L 68.402344 164.136719 C 69.40625 161.671875 71.6875 160.027344 74.332031 159.753906 L 74.332031 151.359375 C 74.332031 149.351562 72.691406 147.707031 70.683594 147.707031 Z M 70.683594 147.707031 "/><path style=" stroke:none;fill-rule:nonzero;fill:#ffffff;fill-opacity:1;" d="M 77.984375 151.539062 L 77.984375 160.300781 L 81.632812 161.855469 L 81.632812 154.371094 L 81.175781 154.097656 C 79.898438 153.546875 78.804688 152.636719 77.984375 151.539062 Z M 77.984375 151.539062 "/><path style=" stroke:none;fill-rule:nonzero;fill:#ffffff;fill-opacity:1;" d="M 77.984375 197.445312 C 78.074219 197.445312 78.164062 197.445312 78.257812 197.445312 C 79.261719 197.445312 80.171875 197.628906 81.085938 197.992188 L 81.632812 198.175781 L 81.632812 186.039062 C 81.085938 186.128906 80.539062 186.222656 79.992188 186.222656 C 79.261719 186.222656 78.621094 186.128906 77.984375 185.945312 Z M 77.984375 197.445312 "/><g style="fill:#ffffff;fill-opacity:1;"><g transform="translate(127.462129, 200.174488)"><path style="stroke:none" d="M 4.324219 1.039062 C 3.578125 1.039062 2.976562 0.789062 2.511719 0.292969 C 2.066406 -0.183594 1.84375 -0.796875 1.84375 -1.550781 L 1.84375 -39.855469 C 1.84375 -40.566406 2.027344 -41.125 2.390625 -41.523438 C 2.78125 -41.957031 3.332031 -42.171875 4.046875 -42.171875 L 19.566406 -42.171875 C 20.25 -42.171875 20.777344 -42.050781 21.152344 -41.8125 C 21.554688 -41.558594 21.867188 -41.117188 22.097656 -40.488281 L 22.101562 -40.472656 L 27.871094 -22.828125 L 26.882812 -22.503906 L 27.859375 -22.871094 C 27.867188 -22.839844 27.878906 -22.820312 27.886719 -22.808594 C 27.878906 -22.820312 27.867188 -22.835938 27.847656 -22.859375 C 27.703125 -23.019531 27.511719 -23.101562 27.273438 -23.101562 C 26.980469 -23.101562 26.761719 -23 26.609375 -22.796875 C 26.597656 -22.785156 26.59375 -22.777344 26.59375 -22.777344 C 26.605469 -22.800781 26.617188 -22.832031 26.632812 -22.871094 L 27.605469 -22.503906 L 26.609375 -22.808594 L 31.765625 -39.824219 L 32.761719 -39.523438 L 31.757812 -39.800781 C 31.953125 -40.5 32.230469 -41.046875 32.597656 -41.4375 C 33.050781 -41.925781 33.605469 -42.171875 34.257812 -42.171875 L 50.277344 -42.171875 C 50.929688 -42.171875 51.441406 -41.953125 51.816406 -41.515625 C 52.148438 -41.128906 52.316406 -40.609375 52.316406 -39.96875 L 52.316406 -1.609375 C 52.316406 -0.699219 52.054688 -0.0234375 51.539062 0.425781 C 51.066406 0.835938 50.386719 1.039062 49.5 1.039062 L 40.132812 1.039062 C 39.273438 1.039062 38.640625 0.816406 38.230469 0.371094 C 37.84375 -0.0507812 37.652344 -0.636719 37.652344 -1.386719 L 37.652344 -26.273438 C 37.652344 -26.289062 37.652344 -26.296875 37.652344 -26.304688 C 37.652344 -26.304688 37.652344 -26.300781 37.652344 -26.296875 C 37.660156 -26.25 37.679688 -26.199219 37.707031 -26.144531 C 37.769531 -26.015625 37.863281 -25.910156 37.992188 -25.824219 C 38.136719 -25.726562 38.296875 -25.679688 38.46875 -25.679688 C 38.6875 -25.679688 38.863281 -25.753906 38.996094 -25.902344 C 39.019531 -25.925781 39.03125 -25.945312 39.039062 -25.960938 C 39.03125 -25.945312 39.023438 -25.921875 39.011719 -25.890625 L 31.023438 -0.652344 L 31.011719 -0.621094 C 30.8125 -0.105469 30.523438 0.296875 30.140625 0.582031 C 29.734375 0.886719 29.257812 1.039062 28.714844 1.039062 L 22.894531 1.039062 C 22.328125 1.039062 21.84375 0.886719 21.4375 0.582031 C 21.042969 0.285156 20.757812 -0.132812 20.578125 -0.667969 L 12.589844 -25.457031 C 12.570312 -25.523438 12.554688 -25.574219 12.539062 -25.605469 L 12.550781 -25.597656 C 12.691406 -25.390625 12.90625 -25.289062 13.191406 -25.289062 C 13.375 -25.289062 13.539062 -25.34375 13.6875 -25.453125 C 13.796875 -25.535156 13.878906 -25.632812 13.929688 -25.746094 C 13.949219 -25.785156 13.957031 -25.8125 13.960938 -25.832031 C 13.957031 -25.808594 13.957031 -25.769531 13.957031 -25.71875 L 13.957031 -1.21875 C 13.957031 -0.476562 13.792969 0.078125 13.472656 0.441406 C 13.117188 0.839844 12.523438 1.039062 11.695312 1.039062 Z M 4.324219 -1.039062 L 11.695312 -1.039062 C 11.871094 -1.039062 12 -1.050781 12.082031 -1.070312 C 12.089844 -1.074219 12.09375 -1.074219 12.09375 -1.074219 C 12.089844 -1.070312 12.078125 -1.066406 12.070312 -1.0625 C 12.015625 -1.035156 11.964844 -0.992188 11.917969 -0.941406 C 11.882812 -0.902344 11.859375 -0.867188 11.84375 -0.832031 C 11.84375 -0.828125 11.839844 -0.824219 11.839844 -0.824219 C 11.84375 -0.832031 11.84375 -0.839844 11.847656 -0.847656 C 11.867188 -0.933594 11.875 -1.058594 11.875 -1.21875 L 11.875 -25.71875 C 11.875 -26.074219 11.929688 -26.371094 12.039062 -26.609375 C 12.136719 -26.824219 12.277344 -26.996094 12.457031 -27.128906 C 12.675781 -27.289062 12.917969 -27.371094 13.191406 -27.371094 C 13.855469 -27.371094 14.316406 -26.945312 14.570312 -26.09375 L 22.550781 -1.328125 C 22.589844 -1.199219 22.636719 -1.117188 22.6875 -1.082031 C 22.722656 -1.054688 22.792969 -1.039062 22.894531 -1.039062 L 28.714844 -1.039062 C 28.796875 -1.039062 28.855469 -1.054688 28.894531 -1.082031 C 28.957031 -1.128906 29.019531 -1.226562 29.074219 -1.375 L 30.042969 -0.996094 L 29.054688 -1.3125 L 37.039062 -26.546875 C 37.140625 -26.847656 37.277344 -27.09375 37.445312 -27.285156 C 37.722656 -27.601562 38.066406 -27.757812 38.46875 -27.757812 C 38.71875 -27.757812 38.941406 -27.691406 39.144531 -27.554688 C 39.324219 -27.433594 39.464844 -27.273438 39.566406 -27.074219 C 39.675781 -26.851562 39.730469 -26.585938 39.730469 -26.273438 L 39.730469 -1.386719 C 39.730469 -1.242188 39.742188 -1.132812 39.765625 -1.050781 C 39.773438 -1.03125 39.777344 -1.019531 39.78125 -1.011719 C 39.777344 -1.019531 39.773438 -1.027344 39.761719 -1.035156 C 39.742188 -1.058594 39.71875 -1.078125 39.699219 -1.089844 C 39.699219 -1.089844 39.707031 -1.085938 39.726562 -1.082031 C 39.820312 -1.054688 39.957031 -1.039062 40.132812 -1.039062 L 49.5 -1.039062 C 49.871094 -1.039062 50.097656 -1.074219 50.179688 -1.144531 C 50.171875 -1.140625 50.164062 -1.132812 50.164062 -1.128906 C 50.167969 -1.140625 50.175781 -1.15625 50.183594 -1.179688 C 50.21875 -1.28125 50.234375 -1.425781 50.234375 -1.609375 L 50.234375 -39.96875 C 50.234375 -40.0625 50.226562 -40.136719 50.214844 -40.191406 L 50.210938 -40.199219 C 50.214844 -40.1875 50.226562 -40.175781 50.238281 -40.164062 C 50.265625 -40.128906 50.300781 -40.105469 50.335938 -40.089844 L 50.339844 -40.085938 C 50.324219 -40.089844 50.304688 -40.089844 50.277344 -40.089844 L 34.257812 -40.089844 C 34.082031 -40.089844 33.917969 -39.808594 33.761719 -39.246094 L 33.757812 -39.234375 L 28.589844 -22.171875 L 28.578125 -22.140625 C 28.300781 -21.394531 27.863281 -21.023438 27.273438 -21.023438 C 26.644531 -21.023438 26.191406 -21.394531 25.910156 -22.140625 L 25.902344 -22.160156 L 20.132812 -39.808594 L 21.121094 -40.132812 L 20.144531 -39.777344 C 20.097656 -39.90625 20.050781 -40.003906 20.007812 -40.070312 C 20 -40.082031 19.992188 -40.09375 19.988281 -40.097656 C 20 -40.085938 20.015625 -40.074219 20.035156 -40.058594 C 20.050781 -40.050781 20.0625 -40.042969 20.066406 -40.042969 C 20.046875 -40.046875 20.023438 -40.054688 19.992188 -40.0625 C 19.882812 -40.082031 19.742188 -40.089844 19.566406 -40.089844 L 4.046875 -40.089844 C 3.960938 -40.089844 3.894531 -40.085938 3.859375 -40.070312 C 3.878906 -40.078125 3.902344 -40.097656 3.929688 -40.125 C 3.941406 -40.140625 3.953125 -40.15625 3.957031 -40.167969 C 3.957031 -40.164062 3.953125 -40.15625 3.953125 -40.144531 C 3.933594 -40.078125 3.921875 -39.980469 3.921875 -39.855469 L 3.921875 -1.550781 C 3.921875 -1.34375 3.957031 -1.203125 4.03125 -1.125 C 4.082031 -1.066406 4.179688 -1.039062 4.324219 -1.039062 Z M 4.324219 -1.039062 "/></g></g><g style="fill:#ffffff;fill-opacity:1;"><g transform="translate(181.616884, 200.174488)"><path style="stroke:none" d="M 40.007812 -27.773438 C 40.007812 -24.90625 39.316406 -22.40625 37.929688 -20.277344 C 36.542969 -18.148438 34.605469 -16.515625 32.109375 -15.378906 C 29.664062 -14.261719 26.867188 -13.707031 23.726562 -13.707031 L 16.128906 -13.707031 C 16.121094 -13.707031 16.113281 -13.707031 16.109375 -13.703125 C 16.117188 -13.707031 16.128906 -13.707031 16.144531 -13.710938 C 16.210938 -13.734375 16.273438 -13.769531 16.335938 -13.828125 C 16.449219 -13.929688 16.503906 -14.035156 16.503906 -14.136719 L 16.503906 -1.609375 C 16.503906 -0.6875 16.230469 0 15.675781 0.445312 C 15.191406 0.839844 14.511719 1.039062 13.636719 1.039062 L 4.324219 1.039062 C 3.464844 1.039062 2.832031 0.816406 2.421875 0.371094 C 2.035156 -0.0507812 1.84375 -0.636719 1.84375 -1.386719 L 1.84375 -39.855469 C 1.84375 -40.53125 2.011719 -41.070312 2.34375 -41.472656 C 2.726562 -41.9375 3.257812 -42.171875 3.9375 -42.171875 L 22.285156 -42.171875 C 25.523438 -42.171875 28.46875 -41.636719 31.125 -40.570312 C 33.839844 -39.480469 35.992188 -37.859375 37.585938 -35.707031 C 39.203125 -33.527344 40.007812 -30.882812 40.007812 -27.773438 Z M 37.929688 -27.773438 C 37.929688 -30.425781 37.257812 -32.660156 35.917969 -34.46875 C 34.554688 -36.308594 32.699219 -37.699219 30.351562 -38.640625 C 27.941406 -39.609375 25.253906 -40.089844 22.285156 -40.089844 L 3.9375 -40.089844 C 3.894531 -40.089844 3.871094 -40.089844 3.863281 -40.085938 C 3.894531 -40.101562 3.921875 -40.121094 3.945312 -40.148438 L 3.949219 -40.136719 C 3.929688 -40.070312 3.921875 -39.976562 3.921875 -39.855469 L 3.921875 -1.386719 C 3.921875 -1.242188 3.933594 -1.132812 3.957031 -1.050781 C 3.960938 -1.03125 3.96875 -1.019531 3.972656 -1.011719 C 3.96875 -1.019531 3.960938 -1.027344 3.953125 -1.035156 C 3.929688 -1.058594 3.910156 -1.078125 3.886719 -1.089844 C 3.890625 -1.089844 3.898438 -1.085938 3.914062 -1.082031 C 4.011719 -1.054688 4.144531 -1.039062 4.324219 -1.039062 L 13.636719 -1.039062 C 14.019531 -1.039062 14.261719 -1.082031 14.367188 -1.167969 C 14.359375 -1.164062 14.355469 -1.160156 14.355469 -1.15625 C 14.359375 -1.164062 14.367188 -1.179688 14.375 -1.199219 C 14.410156 -1.296875 14.425781 -1.429688 14.425781 -1.609375 L 14.425781 -14.136719 C 14.425781 -14.644531 14.59375 -15.050781 14.929688 -15.359375 C 15.238281 -15.644531 15.640625 -15.785156 16.128906 -15.785156 L 23.726562 -15.785156 C 26.566406 -15.785156 29.074219 -16.28125 31.25 -17.269531 C 33.375 -18.242188 35.019531 -19.621094 36.183594 -21.410156 C 37.347656 -23.195312 37.929688 -25.316406 37.929688 -27.773438 Z M 25.070312 -27.9375 C 25.070312 -28.921875 24.742188 -29.707031 24.085938 -30.296875 C 23.394531 -30.914062 22.535156 -31.222656 21.507812 -31.222656 L 16.742188 -31.222656 C 16.59375 -31.222656 16.484375 -31.210938 16.410156 -31.191406 L 16.398438 -31.191406 C 16.425781 -31.203125 16.453125 -31.222656 16.476562 -31.25 C 16.507812 -31.277344 16.523438 -31.300781 16.527344 -31.3125 C 16.511719 -31.265625 16.503906 -31.195312 16.503906 -31.097656 L 16.503906 -24.832031 C 16.503906 -24.691406 16.515625 -24.582031 16.53125 -24.503906 C 16.535156 -24.488281 16.539062 -24.480469 16.539062 -24.476562 C 16.53125 -24.496094 16.519531 -24.515625 16.5 -24.539062 C 16.457031 -24.59375 16.40625 -24.632812 16.351562 -24.652344 L 16.339844 -24.65625 C 16.359375 -24.65625 16.378906 -24.652344 16.40625 -24.652344 L 21.839844 -24.652344 C 22.832031 -24.652344 23.613281 -24.960938 24.183594 -25.570312 C 24.773438 -26.203125 25.070312 -26.992188 25.070312 -27.9375 Z M 27.148438 -27.9375 C 27.148438 -26.445312 26.667969 -25.183594 25.703125 -24.152344 C 24.722656 -23.101562 23.433594 -22.574219 21.839844 -22.574219 L 16.40625 -22.574219 C 15.742188 -22.574219 15.230469 -22.796875 14.875 -23.242188 C 14.574219 -23.617188 14.425781 -24.148438 14.425781 -24.832031 L 14.425781 -31.097656 C 14.425781 -31.792969 14.621094 -32.332031 15.007812 -32.71875 C 15.394531 -33.105469 15.972656 -33.300781 16.742188 -33.300781 L 21.507812 -33.300781 C 23.066406 -33.300781 24.386719 -32.816406 25.472656 -31.84375 C 26.589844 -30.84375 27.148438 -29.539062 27.148438 -27.9375 Z M 27.148438 -27.9375 "/></g></g><g style="fill:#ffffff;fill-opacity:1;"><g transform="translate(222.135947, 200.174488)"><path style="stroke:none" d="M 4.15625 1.039062 C 3.5 1.039062 2.949219 0.816406 2.507812 0.375 C 2.066406 -0.0703125 1.84375 -0.601562 1.84375 -1.21875 L 1.84375 -39.691406 C 1.84375 -40.371094 2.066406 -40.949219 2.511719 -41.425781 C 2.976562 -41.921875 3.5625 -42.171875 4.269531 -42.171875 L 20.789062 -42.171875 C 26.75 -42.171875 31.300781 -41.203125 34.441406 -39.273438 C 37.746094 -37.242188 39.398438 -34.238281 39.398438 -30.265625 C 39.398438 -28.066406 38.789062 -26.195312 37.566406 -24.660156 C 36.390625 -23.179688 34.382812 -21.78125 31.535156 -20.453125 L 31.097656 -21.398438 L 31.5625 -20.46875 C 31.714844 -20.542969 31.832031 -20.65625 31.917969 -20.804688 C 31.988281 -20.933594 32.027344 -21.066406 32.027344 -21.203125 C 32.027344 -21.339844 31.988281 -21.472656 31.917969 -21.601562 C 31.832031 -21.75 31.714844 -21.863281 31.5625 -21.9375 L 31.097656 -21.007812 L 31.457031 -21.984375 C 34.625 -20.808594 36.898438 -19.394531 38.273438 -17.738281 C 39.6875 -16.027344 40.398438 -13.847656 40.398438 -11.199219 C 40.398438 -7.007812 38.785156 -3.898438 35.558594 -1.863281 C 32.488281 0.0703125 27.859375 1.039062 21.675781 1.039062 Z M 4.15625 -1.039062 L 21.675781 -1.039062 C 27.460938 -1.039062 31.71875 -1.902344 34.453125 -3.625 C 37.027344 -5.25 38.316406 -7.773438 38.316406 -11.199219 C 38.316406 -13.347656 37.769531 -15.085938 36.671875 -16.410156 C 35.535156 -17.78125 33.554688 -18.988281 30.738281 -20.035156 L 30.683594 -20.054688 L 30.632812 -20.078125 C 30.40625 -20.191406 30.234375 -20.355469 30.113281 -20.570312 C 30.003906 -20.761719 29.949219 -20.972656 29.949219 -21.203125 C 29.949219 -21.433594 30.003906 -21.644531 30.113281 -21.835938 C 30.234375 -22.050781 30.40625 -22.214844 30.632812 -22.328125 L 30.644531 -22.332031 L 30.660156 -22.339844 C 33.207031 -23.527344 34.96875 -24.730469 35.9375 -25.953125 C 36.859375 -27.109375 37.320312 -28.550781 37.320312 -30.265625 C 37.320312 -33.464844 35.996094 -35.875 33.351562 -37.5 C 30.542969 -39.226562 26.355469 -40.089844 20.789062 -40.089844 L 4.269531 -40.089844 C 4.164062 -40.089844 4.082031 -40.0625 4.03125 -40.007812 C 3.957031 -39.929688 3.921875 -39.824219 3.921875 -39.691406 L 3.921875 -1.21875 C 3.921875 -1.175781 3.941406 -1.132812 3.976562 -1.09375 C 4.015625 -1.058594 4.074219 -1.039062 4.15625 -1.039062 Z M 21.675781 -26.09375 C 22.699219 -26.09375 23.503906 -26.355469 24.082031 -26.878906 C 24.628906 -27.375 24.902344 -28.023438 24.902344 -28.824219 C 24.902344 -29.683594 24.585938 -30.378906 23.945312 -30.910156 C 23.253906 -31.488281 22.367188 -31.777344 21.285156 -31.777344 L 16.742188 -31.777344 C 16.585938 -31.777344 16.464844 -31.765625 16.382812 -31.746094 C 16.367188 -31.742188 16.359375 -31.738281 16.359375 -31.738281 C 16.386719 -31.75 16.410156 -31.769531 16.4375 -31.792969 C 16.484375 -31.835938 16.511719 -31.875 16.523438 -31.90625 C 16.511719 -31.867188 16.503906 -31.800781 16.503906 -31.707031 L 16.503906 -26.273438 C 16.503906 -26.132812 16.515625 -26.023438 16.53125 -25.945312 C 16.535156 -25.929688 16.539062 -25.921875 16.539062 -25.917969 C 16.53125 -25.9375 16.519531 -25.957031 16.5 -25.980469 C 16.457031 -26.035156 16.40625 -26.074219 16.351562 -26.09375 L 16.339844 -26.097656 C 16.359375 -26.097656 16.378906 -26.09375 16.40625 -26.09375 Z M 21.675781 -24.015625 L 16.40625 -24.015625 C 15.742188 -24.015625 15.230469 -24.238281 14.875 -24.683594 C 14.574219 -25.058594 14.425781 -25.589844 14.425781 -26.273438 L 14.425781 -31.707031 C 14.425781 -32.421875 14.632812 -32.964844 15.046875 -33.339844 C 15.429688 -33.683594 15.996094 -33.855469 16.742188 -33.855469 L 21.285156 -33.855469 C 22.867188 -33.855469 24.199219 -33.40625 25.277344 -32.507812 C 26.414062 -31.558594 26.980469 -30.332031 26.980469 -28.824219 C 26.980469 -27.410156 26.480469 -26.246094 25.476562 -25.339844 C 24.5 -24.457031 23.234375 -24.015625 21.675781 -24.015625 Z M 21.398438 -9.355469 C 22.628906 -9.355469 23.578125 -9.679688 24.246094 -10.332031 C 24.90625 -10.980469 25.234375 -11.730469 25.234375 -12.582031 C 25.234375 -13.414062 24.929688 -14.09375 24.316406 -14.625 C 23.664062 -15.195312 22.78125 -15.480469 21.675781 -15.480469 L 16.742188 -15.480469 C 16.59375 -15.480469 16.484375 -15.46875 16.410156 -15.449219 L 16.398438 -15.445312 C 16.425781 -15.460938 16.453125 -15.480469 16.476562 -15.507812 C 16.507812 -15.535156 16.523438 -15.554688 16.527344 -15.570312 C 16.511719 -15.523438 16.503906 -15.453125 16.503906 -15.355469 L 16.503906 -9.535156 C 16.503906 -9.394531 16.515625 -9.28125 16.53125 -9.203125 C 16.535156 -9.1875 16.539062 -9.179688 16.539062 -9.175781 C 16.53125 -9.195312 16.519531 -9.21875 16.5 -9.242188 C 16.457031 -9.296875 16.40625 -9.332031 16.351562 -9.355469 L 16.339844 -9.359375 C 16.359375 -9.355469 16.378906 -9.355469 16.40625 -9.355469 Z M 21.398438 -7.277344 L 16.40625 -7.277344 C 15.742188 -7.277344 15.230469 -7.496094 14.875 -7.941406 C 14.574219 -8.316406 14.425781 -8.847656 14.425781 -9.535156 L 14.425781 -15.355469 C 14.425781 -16.046875 14.621094 -16.589844 15.007812 -16.976562 C 15.394531 -17.363281 15.972656 -17.558594 16.742188 -17.558594 L 21.675781 -17.558594 C 23.300781 -17.558594 24.636719 -17.105469 25.683594 -16.195312 C 26.769531 -15.25 27.316406 -14.042969 27.316406 -12.582031 C 27.316406 -11.144531 26.777344 -9.902344 25.699219 -8.847656 C 24.628906 -7.800781 23.195312 -7.277344 21.398438 -7.277344 Z M 21.398438 -7.277344 "/></g></g><g style="fill:#ffffff;fill-opacity:1;"><g transform="translate(263.098446, 200.174488)"><path style="stroke:none" d="M 14.46875 -42.171875 C 15.121094 -42.171875 15.632812 -41.953125 16.003906 -41.515625 C 16.339844 -41.128906 16.503906 -40.609375 16.503906 -39.96875 L 16.503906 -1.609375 C 16.503906 -0.6875 16.230469 0 15.675781 0.445312 C 15.191406 0.839844 14.511719 1.039062 13.636719 1.039062 L 4.378906 1.039062 C 3.539062 1.039062 2.90625 0.828125 2.480469 0.402344 C 2.054688 -0.0234375 1.84375 -0.617188 1.84375 -1.386719 L 1.84375 -39.855469 C 1.84375 -40.511719 2.015625 -41.050781 2.359375 -41.464844 C 2.753906 -41.933594 3.277344 -42.171875 3.9375 -42.171875 Z M 14.46875 -40.089844 L 3.9375 -40.089844 C 3.917969 -40.089844 3.902344 -40.089844 3.890625 -40.089844 C 3.894531 -40.089844 3.894531 -40.089844 3.902344 -40.09375 C 3.925781 -40.101562 3.945312 -40.117188 3.957031 -40.132812 C 3.933594 -40.105469 3.921875 -40.011719 3.921875 -39.855469 L 3.921875 -1.386719 C 3.921875 -1.253906 3.933594 -1.148438 3.957031 -1.074219 L 3.949219 -1.066406 C 3.933594 -1.082031 3.921875 -1.09375 3.910156 -1.101562 C 3.917969 -1.09375 3.933594 -1.089844 3.957031 -1.082031 C 4.058594 -1.054688 4.199219 -1.039062 4.378906 -1.039062 L 13.636719 -1.039062 C 14.019531 -1.039062 14.261719 -1.082031 14.367188 -1.167969 C 14.359375 -1.164062 14.355469 -1.160156 14.355469 -1.15625 C 14.359375 -1.164062 14.367188 -1.179688 14.375 -1.199219 C 14.410156 -1.296875 14.425781 -1.429688 14.425781 -1.609375 L 14.425781 -39.96875 C 14.425781 -40.0625 14.417969 -40.136719 14.402344 -40.191406 L 14.402344 -40.199219 C 14.40625 -40.1875 14.414062 -40.175781 14.425781 -40.164062 C 14.457031 -40.128906 14.492188 -40.105469 14.527344 -40.089844 L 14.53125 -40.085938 C 14.515625 -40.089844 14.492188 -40.089844 14.46875 -40.089844 Z M 14.46875 -40.089844 "/></g></g><g style="fill:#ffffff;fill-opacity:1;"><g transform="translate(281.445659, 200.174488)"><path style="stroke:none" d="M 1.84375 -39.855469 C 1.84375 -40.511719 2.015625 -41.050781 2.359375 -41.464844 C 2.753906 -41.933594 3.277344 -42.171875 3.9375 -42.171875 L 14.46875 -42.171875 C 15.121094 -42.171875 15.632812 -41.953125 16.003906 -41.515625 C 16.339844 -41.128906 16.503906 -40.609375 16.503906 -39.96875 L 16.503906 -9.867188 C 16.503906 -9.796875 16.507812 -9.75 16.515625 -9.722656 C 16.5 -9.785156 16.464844 -9.851562 16.402344 -9.921875 C 16.320312 -10.023438 16.222656 -10.089844 16.117188 -10.125 C 16.101562 -10.128906 16.089844 -10.132812 16.085938 -10.132812 C 16.09375 -10.132812 16.109375 -10.128906 16.128906 -10.128906 L 32.816406 -10.128906 C 33.488281 -10.128906 34.03125 -9.964844 34.433594 -9.628906 C 34.898438 -9.246094 35.128906 -8.714844 35.128906 -8.039062 L 35.128906 -1.21875 C 35.128906 -0.546875 34.898438 0.00390625 34.4375 0.429688 C 33.996094 0.835938 33.417969 1.039062 32.707031 1.039062 L 4.378906 1.039062 C 3.539062 1.039062 2.90625 0.828125 2.480469 0.402344 C 2.054688 -0.0234375 1.84375 -0.617188 1.84375 -1.386719 Z M 3.921875 -39.855469 L 3.921875 -1.386719 C 3.921875 -1.253906 3.933594 -1.148438 3.957031 -1.074219 L 3.949219 -1.066406 C 3.933594 -1.082031 3.921875 -1.09375 3.910156 -1.101562 C 3.917969 -1.09375 3.933594 -1.089844 3.957031 -1.082031 C 4.058594 -1.054688 4.199219 -1.039062 4.378906 -1.039062 L 32.707031 -1.039062 C 32.878906 -1.039062 32.984375 -1.058594 33.027344 -1.097656 C 33.042969 -1.113281 33.050781 -1.152344 33.050781 -1.21875 L 33.050781 -8.039062 C 33.050781 -8.078125 33.050781 -8.101562 33.046875 -8.109375 C 33.058594 -8.078125 33.082031 -8.050781 33.109375 -8.027344 L 33.097656 -8.023438 C 33.027344 -8.042969 32.933594 -8.050781 32.816406 -8.050781 L 16.128906 -8.050781 C 15.546875 -8.050781 15.105469 -8.230469 14.804688 -8.589844 C 14.550781 -8.894531 14.425781 -9.320312 14.425781 -9.867188 L 14.425781 -39.96875 C 14.425781 -40.0625 14.417969 -40.136719 14.402344 -40.191406 L 14.402344 -40.199219 C 14.40625 -40.1875 14.414062 -40.175781 14.425781 -40.164062 C 14.457031 -40.128906 14.492188 -40.105469 14.527344 -40.089844 L 14.53125 -40.085938 C 14.515625 -40.089844 14.492188 -40.089844 14.46875 -40.089844 L 3.9375 -40.089844 C 3.917969 -40.089844 3.902344 -40.089844 3.890625 -40.089844 C 3.894531 -40.089844 3.894531 -40.089844 3.902344 -40.09375 C 3.925781 -40.101562 3.945312 -40.117188 3.957031 -40.132812 C 3.933594 -40.105469 3.921875 -40.011719 3.921875 -39.855469 Z M 3.921875 -39.855469 "/></g></g><g style="fill:#ffffff;fill-opacity:1;"><g transform="translate(317.086919, 200.174488)"><path style="stroke:none" d="M 1.84375 -39.855469 C 1.84375 -40.53125 2.011719 -41.070312 2.34375 -41.472656 C 2.726562 -41.9375 3.257812 -42.171875 3.9375 -42.171875 L 33.871094 -42.171875 C 34.519531 -42.171875 35.03125 -41.953125 35.40625 -41.515625 C 35.738281 -41.128906 35.90625 -40.609375 35.90625 -39.96875 L 35.851562 -33.527344 C 35.851562 -32.753906 35.632812 -32.144531 35.199219 -31.691406 C 34.753906 -31.230469 34.144531 -31 33.371094 -31 L 16.742188 -31 C 16.621094 -31 16.527344 -30.992188 16.457031 -30.972656 L 16.445312 -30.976562 C 16.476562 -31 16.496094 -31.027344 16.507812 -31.058594 C 16.507812 -31.050781 16.503906 -31.027344 16.503906 -30.988281 L 16.503906 -26.273438 C 16.503906 -26.199219 16.511719 -26.140625 16.523438 -26.101562 L 16.527344 -26.097656 C 16.523438 -26.101562 16.519531 -26.109375 16.511719 -26.113281 C 16.5 -26.125 16.488281 -26.136719 16.464844 -26.144531 L 16.464844 -26.148438 L 26.441406 -26.148438 C 27.105469 -26.148438 27.636719 -25.960938 28.03125 -25.585938 C 28.441406 -25.195312 28.644531 -24.667969 28.644531 -24.003906 L 28.644531 -17.128906 C 28.644531 -16.515625 28.453125 -16.027344 28.070312 -15.667969 C 27.703125 -15.320312 27.214844 -15.148438 26.609375 -15.148438 L 16.339844 -15.148438 C 16.363281 -15.15625 16.386719 -15.171875 16.40625 -15.1875 C 16.472656 -15.246094 16.503906 -15.320312 16.503906 -15.410156 L 16.503906 -9.867188 C 16.503906 -9.796875 16.507812 -9.75 16.515625 -9.722656 C 16.5 -9.785156 16.464844 -9.851562 16.402344 -9.921875 C 16.320312 -10.023438 16.222656 -10.089844 16.117188 -10.125 C 16.101562 -10.128906 16.089844 -10.132812 16.085938 -10.132812 C 16.09375 -10.132812 16.109375 -10.128906 16.128906 -10.128906 L 34.144531 -10.128906 C 34.8125 -10.128906 35.34375 -9.957031 35.742188 -9.613281 C 36.183594 -9.230469 36.40625 -8.707031 36.40625 -8.039062 L 36.40625 -1.21875 C 36.40625 -0.5625 36.191406 -0.0234375 35.769531 0.402344 C 35.34375 0.828125 34.765625 1.039062 34.035156 1.039062 L 4.378906 1.039062 C 3.539062 1.039062 2.90625 0.828125 2.480469 0.402344 C 2.054688 -0.0234375 1.84375 -0.617188 1.84375 -1.386719 Z M 3.921875 -39.855469 L 3.921875 -1.386719 C 3.921875 -1.253906 3.933594 -1.148438 3.957031 -1.074219 L 3.949219 -1.066406 C 3.933594 -1.082031 3.921875 -1.09375 3.910156 -1.101562 C 3.917969 -1.09375 3.933594 -1.089844 3.957031 -1.082031 C 4.058594 -1.054688 4.199219 -1.039062 4.378906 -1.039062 L 34.035156 -1.039062 C 34.144531 -1.039062 34.230469 -1.050781 34.289062 -1.070312 L 34.296875 -1.066406 C 34.316406 -1.085938 34.328125 -1.136719 34.328125 -1.21875 L 34.328125 -8.039062 C 34.328125 -8.085938 34.324219 -8.113281 34.320312 -8.125 C 34.332031 -8.09375 34.351562 -8.066406 34.382812 -8.039062 C 34.390625 -8.03125 34.402344 -8.023438 34.410156 -8.019531 C 34.410156 -8.019531 34.402344 -8.023438 34.390625 -8.027344 C 34.332031 -8.042969 34.25 -8.050781 34.144531 -8.050781 L 16.128906 -8.050781 C 15.546875 -8.050781 15.105469 -8.230469 14.804688 -8.589844 C 14.550781 -8.894531 14.425781 -9.320312 14.425781 -9.867188 L 14.425781 -15.410156 C 14.425781 -15.941406 14.625 -16.386719 15.023438 -16.742188 C 15.386719 -17.0625 15.832031 -17.226562 16.351562 -17.226562 L 26.609375 -17.226562 C 26.667969 -17.226562 26.707031 -17.230469 26.730469 -17.238281 C 26.703125 -17.226562 26.675781 -17.207031 26.640625 -17.175781 C 26.601562 -17.140625 26.578125 -17.101562 26.5625 -17.0625 C 26.566406 -17.066406 26.566406 -17.089844 26.566406 -17.128906 L 26.566406 -24.003906 C 26.566406 -24.070312 26.5625 -24.117188 26.550781 -24.144531 C 26.558594 -24.125 26.574219 -24.105469 26.597656 -24.082031 C 26.617188 -24.0625 26.628906 -24.054688 26.636719 -24.050781 C 26.59375 -24.066406 26.527344 -24.070312 26.441406 -24.070312 L 16.464844 -24.070312 C 15.859375 -24.070312 15.363281 -24.285156 14.972656 -24.714844 C 14.609375 -25.117188 14.425781 -25.636719 14.425781 -26.273438 L 14.425781 -30.988281 C 14.425781 -31.664062 14.660156 -32.195312 15.121094 -32.578125 C 15.527344 -32.914062 16.066406 -33.078125 16.742188 -33.078125 L 33.371094 -33.078125 C 33.554688 -33.078125 33.667969 -33.097656 33.703125 -33.136719 C 33.75 -33.183594 33.773438 -33.320312 33.773438 -33.546875 L 33.828125 -39.96875 C 33.828125 -40.0625 33.820312 -40.136719 33.804688 -40.191406 L 33.800781 -40.199219 C 33.808594 -40.1875 33.816406 -40.175781 33.828125 -40.164062 C 33.859375 -40.128906 33.890625 -40.105469 33.929688 -40.089844 L 33.933594 -40.085938 C 33.917969 -40.089844 33.894531 -40.089844 33.871094 -40.089844 L 3.9375 -40.089844 C 3.894531 -40.089844 3.871094 -40.089844 3.863281 -40.085938 C 3.894531 -40.101562 3.921875 -40.121094 3.945312 -40.148438 L 3.949219 -40.136719 C 3.929688 -40.070312 3.921875 -39.976562 3.921875 -39.855469 Z M 3.921875 -39.855469 "/></g></g><g style="fill:#ffffff;fill-opacity:1;"><g transform="translate(127.462129, 254.924484)"><path style="stroke:none" d="M 26.621094 -29.394531 C 25.816406 -30.265625 24.964844 -30.929688 24.058594 -31.390625 C 23.1875 -31.832031 21.878906 -32.054688 20.121094 -32.054688 C 18.390625 -32.054688 17.148438 -31.824219 16.386719 -31.371094 C 15.800781 -31.019531 15.507812 -30.648438 15.507812 -30.265625 C 15.507812 -29.484375 16.421875 -28.878906 18.253906 -28.449219 L 18.265625 -28.449219 L 27.476562 -26.0625 C 31.0625 -25.15625 33.777344 -23.550781 35.625 -21.242188 C 37.476562 -18.929688 38.402344 -16.171875 38.402344 -12.972656 C 38.402344 -10.015625 37.617188 -7.433594 36.046875 -5.21875 C 34.492188 -3.023438 32.28125 -1.332031 29.417969 -0.148438 C 26.609375 1.011719 23.34375 1.59375 19.625 1.59375 C 15.421875 1.59375 11.589844 0.894531 8.121094 -0.503906 C 4.558594 -1.941406 2.070312 -3.851562 0.65625 -6.234375 L 0.640625 -6.265625 L 0.621094 -6.296875 C 0.363281 -6.8125 0.234375 -7.246094 0.234375 -7.59375 C 0.234375 -8.316406 0.582031 -8.929688 1.273438 -9.433594 L 1.285156 -9.441406 L 7.019531 -13.394531 L 7.035156 -13.40625 C 7.613281 -13.773438 8.167969 -13.957031 8.703125 -13.957031 C 9.449219 -13.957031 10.054688 -13.65625 10.519531 -13.054688 C 11.683594 -11.550781 12.84375 -10.5 14 -9.90625 C 15.144531 -9.316406 16.707031 -9.023438 18.679688 -9.023438 C 20.59375 -9.023438 22.078125 -9.273438 23.140625 -9.78125 C 23.945312 -10.164062 24.347656 -10.636719 24.347656 -11.199219 C 24.347656 -11.585938 24.171875 -11.933594 23.816406 -12.246094 C 23.359375 -12.644531 22.640625 -12.957031 21.667969 -13.175781 L 13.222656 -15.230469 C 9.683594 -16.097656 6.863281 -17.730469 4.761719 -20.128906 C 2.632812 -22.5625 1.566406 -25.367188 1.566406 -28.546875 C 1.566406 -31.167969 2.332031 -33.574219 3.859375 -35.765625 C 5.371094 -37.9375 7.511719 -39.644531 10.273438 -40.886719 C 12.996094 -42.113281 16.128906 -42.726562 19.679688 -42.726562 C 23.132812 -42.726562 26.34375 -42.15625 29.308594 -41.019531 C 32.351562 -39.855469 34.566406 -38.277344 35.941406 -36.292969 L 35.089844 -35.699219 L 35.910156 -36.335938 C 36.3125 -35.816406 36.515625 -35.289062 36.515625 -34.757812 C 36.515625 -34.179688 36.265625 -33.675781 35.765625 -33.246094 L 35.734375 -33.21875 L 29.65625 -28.816406 L 29.046875 -29.65625 L 29.695312 -28.84375 C 29.320312 -28.546875 28.902344 -28.394531 28.4375 -28.394531 C 27.890625 -28.394531 27.296875 -28.71875 26.648438 -29.363281 L 26.632812 -29.378906 Z M 28.148438 -30.804688 L 27.382812 -30.101562 L 28.117188 -30.835938 C 28.285156 -30.667969 28.425781 -30.550781 28.535156 -30.480469 C 28.558594 -30.464844 28.574219 -30.457031 28.582031 -30.453125 C 28.542969 -30.46875 28.496094 -30.472656 28.4375 -30.472656 C 28.414062 -30.472656 28.402344 -30.472656 28.398438 -30.46875 L 28.417969 -30.484375 L 34.480469 -34.878906 L 35.089844 -34.035156 L 34.414062 -34.824219 C 34.445312 -34.851562 34.460938 -34.867188 34.464844 -34.875 C 34.445312 -34.839844 34.4375 -34.800781 34.4375 -34.757812 C 34.4375 -34.8125 34.382812 -34.914062 34.269531 -35.058594 L 34.25 -35.082031 L 34.234375 -35.105469 C 33.101562 -36.742188 31.210938 -38.066406 28.5625 -39.078125 C 25.839844 -40.125 22.875 -40.644531 19.679688 -40.644531 C 16.425781 -40.644531 13.578125 -40.09375 11.125 -38.992188 C 8.710938 -37.90625 6.859375 -36.433594 5.5625 -34.578125 C 4.285156 -32.742188 3.644531 -30.730469 3.644531 -28.546875 C 3.644531 -25.890625 4.539062 -23.539062 6.324219 -21.5 C 8.140625 -19.429688 10.601562 -18.011719 13.714844 -17.25 L 22.125 -15.203125 C 23.441406 -14.90625 24.460938 -14.441406 25.1875 -13.808594 C 26.011719 -13.085938 26.425781 -12.214844 26.425781 -11.199219 C 26.425781 -9.761719 25.628906 -8.664062 24.035156 -7.902344 C 22.691406 -7.261719 20.90625 -6.941406 18.679688 -6.941406 C 16.371094 -6.941406 14.492188 -7.3125 13.050781 -8.054688 C 11.621094 -8.792969 10.230469 -10.03125 8.878906 -11.777344 C 8.828125 -11.84375 8.769531 -11.875 8.703125 -11.875 C 8.570312 -11.875 8.386719 -11.800781 8.152344 -11.652344 L 7.59375 -12.527344 L 8.183594 -11.671875 L 2.476562 -7.734375 L 1.882812 -8.59375 L 2.496094 -7.75 C 2.40625 -7.683594 2.34375 -7.628906 2.3125 -7.578125 C 2.3125 -7.578125 2.3125 -7.585938 2.3125 -7.59375 C 2.3125 -7.617188 2.3125 -7.632812 2.3125 -7.640625 C 2.316406 -7.625 2.320312 -7.605469 2.332031 -7.578125 C 2.359375 -7.484375 2.410156 -7.367188 2.480469 -7.226562 L 1.550781 -6.761719 L 2.445312 -7.292969 C 3.621094 -5.3125 5.769531 -3.695312 8.898438 -2.433594 C 12.117188 -1.132812 15.691406 -0.484375 19.625 -0.484375 C 23.070312 -0.484375 26.070312 -1.011719 28.621094 -2.070312 C 31.117188 -3.101562 33.027344 -4.550781 34.351562 -6.421875 C 35.664062 -8.273438 36.320312 -10.457031 36.320312 -12.972656 C 36.320312 -15.683594 35.546875 -18.007812 34 -19.945312 C 32.445312 -21.886719 30.097656 -23.253906 26.957031 -24.050781 L 17.753906 -26.433594 L 18.015625 -27.4375 L 17.777344 -26.425781 C 14.878906 -27.105469 13.429688 -28.386719 13.429688 -30.265625 C 13.429688 -31.433594 14.058594 -32.398438 15.320312 -33.152344 C 16.40625 -33.804688 18.007812 -34.132812 20.121094 -34.132812 C 22.210938 -34.132812 23.835938 -33.835938 25 -33.242188 C 26.128906 -32.667969 27.175781 -31.855469 28.148438 -30.804688 Z M 28.148438 -30.804688 "/></g></g><g style="fill:#ffffff;fill-opacity:1;"><g transform="translate(166.318297, 254.924484)"><path style="stroke:none" d="M 0.511719 -39.855469 C 0.511719 -40.511719 0.734375 -41.0625 1.175781 -41.503906 C 1.621094 -41.949219 2.207031 -42.171875 2.9375 -42.171875 L 36.085938 -42.171875 C 36.816406 -42.171875 37.402344 -41.949219 37.847656 -41.503906 C 38.289062 -41.0625 38.511719 -40.511719 38.511719 -39.855469 L 38.511719 -33.257812 C 38.511719 -32.589844 38.289062 -32.066406 37.847656 -31.683594 C 37.449219 -31.339844 36.917969 -31.167969 36.253906 -31.167969 L 26.441406 -31.167969 L 26.429688 -31.171875 C 26.488281 -31.1875 26.546875 -31.21875 26.609375 -31.269531 C 26.746094 -31.382812 26.816406 -31.511719 26.816406 -31.652344 L 26.816406 -1.21875 C 26.816406 -0.546875 26.632812 -0.0078125 26.269531 0.394531 C 25.878906 0.824219 25.363281 1.039062 24.722656 1.039062 L 14.191406 1.039062 C 13.550781 1.039062 13.042969 0.832031 12.667969 0.417969 C 12.324219 0.0351562 12.152344 -0.472656 12.152344 -1.109375 L 12.152344 -31.429688 C 12.152344 -31.46875 12.152344 -31.496094 12.148438 -31.507812 C 12.160156 -31.464844 12.183594 -31.417969 12.222656 -31.371094 C 12.328125 -31.234375 12.449219 -31.167969 12.582031 -31.167969 L 2.828125 -31.167969 C 2.152344 -31.167969 1.613281 -31.332031 1.207031 -31.667969 C 0.746094 -32.050781 0.511719 -32.582031 0.511719 -33.257812 Z M 2.589844 -39.855469 L 2.589844 -33.257812 C 2.589844 -33.21875 2.59375 -33.195312 2.597656 -33.1875 C 2.582031 -33.21875 2.5625 -33.246094 2.53125 -33.269531 L 2.546875 -33.273438 C 2.613281 -33.253906 2.707031 -33.246094 2.828125 -33.246094 L 12.582031 -33.246094 C 13.125 -33.246094 13.546875 -33.046875 13.859375 -32.65625 C 14.109375 -32.335938 14.230469 -31.929688 14.230469 -31.429688 L 14.230469 -1.109375 C 14.230469 -1.027344 14.238281 -0.964844 14.25 -0.921875 C 14.246094 -0.933594 14.234375 -0.949219 14.214844 -0.972656 C 14.183594 -1.007812 14.152344 -1.03125 14.113281 -1.042969 C 14.125 -1.039062 14.148438 -1.039062 14.191406 -1.039062 L 24.722656 -1.039062 C 24.757812 -1.039062 24.777344 -1.039062 24.785156 -1.042969 C 24.765625 -1.035156 24.746094 -1.023438 24.730469 -1.003906 C 24.71875 -0.992188 24.710938 -0.984375 24.707031 -0.972656 C 24.707031 -0.976562 24.710938 -0.980469 24.710938 -0.988281 C 24.726562 -1.042969 24.738281 -1.117188 24.738281 -1.21875 L 24.738281 -31.652344 C 24.738281 -32.160156 24.917969 -32.566406 25.277344 -32.867188 C 25.582031 -33.121094 25.96875 -33.246094 26.441406 -33.246094 L 36.253906 -33.246094 C 36.359375 -33.246094 36.441406 -33.253906 36.5 -33.269531 C 36.507812 -33.273438 36.515625 -33.277344 36.519531 -33.277344 C 36.507812 -33.273438 36.5 -33.265625 36.488281 -33.257812 C 36.457031 -33.230469 36.4375 -33.203125 36.425781 -33.171875 C 36.429688 -33.183594 36.433594 -33.214844 36.433594 -33.257812 L 36.433594 -39.855469 C 36.433594 -39.9375 36.414062 -40 36.378906 -40.035156 C 36.339844 -40.074219 36.242188 -40.089844 36.085938 -40.089844 L 2.9375 -40.089844 C 2.78125 -40.089844 2.683594 -40.074219 2.648438 -40.035156 C 2.609375 -40 2.589844 -39.9375 2.589844 -39.855469 Z M 2.589844 -39.855469 "/></g></g><g style="fill:#ffffff;fill-opacity:1;"><g transform="translate(205.34076, 254.924484)"><path style="stroke:none" d="M 21.675781 1.59375 C 17.460938 1.59375 13.769531 0.6875 10.597656 -1.121094 C 7.410156 -2.941406 4.953125 -5.523438 3.234375 -8.863281 C 1.53125 -12.171875 0.679688 -16.035156 0.679688 -20.453125 C 0.679688 -24.871094 1.539062 -28.753906 3.261719 -32.101562 C 4.996094 -35.476562 7.460938 -38.09375 10.644531 -39.949219 C 13.820312 -41.800781 17.496094 -42.726562 21.675781 -42.726562 C 25.816406 -42.726562 29.464844 -41.800781 32.621094 -39.949219 C 35.789062 -38.089844 38.238281 -35.476562 39.976562 -32.101562 C 41.699219 -28.753906 42.558594 -24.871094 42.558594 -20.453125 C 42.558594 -16.074219 41.707031 -12.222656 40.003906 -8.894531 C 38.285156 -5.535156 35.839844 -2.941406 32.667969 -1.121094 C 29.515625 0.6875 25.851562 1.59375 21.675781 1.59375 Z M 21.675781 -0.484375 C 25.480469 -0.484375 28.800781 -1.296875 31.632812 -2.925781 C 34.449219 -4.539062 36.621094 -6.847656 38.15625 -9.839844 C 39.703125 -12.871094 40.480469 -16.410156 40.480469 -20.453125 C 40.480469 -24.535156 39.695312 -28.101562 38.128906 -31.148438 C 36.574219 -34.167969 34.390625 -36.503906 31.570312 -38.15625 C 28.738281 -39.816406 25.441406 -40.644531 21.675781 -40.644531 C 17.871094 -40.644531 14.542969 -39.816406 11.691406 -38.152344 C 8.855469 -36.5 6.660156 -34.164062 5.109375 -31.148438 C 3.542969 -28.101562 2.757812 -24.535156 2.757812 -20.453125 C 2.757812 -16.371094 3.53125 -12.828125 5.082031 -9.816406 C 6.613281 -6.839844 8.796875 -4.542969 11.628906 -2.925781 C 14.480469 -1.296875 17.828125 -0.484375 21.675781 -0.484375 Z M 21.675781 -9.132812 C 23.050781 -9.132812 24.125 -9.449219 24.890625 -10.085938 C 25.675781 -10.734375 26.265625 -11.835938 26.652344 -13.390625 C 27.074219 -15.082031 27.285156 -17.378906 27.285156 -20.289062 C 27.285156 -24.703125 26.808594 -27.832031 25.851562 -29.675781 C 25.011719 -31.296875 23.617188 -32.109375 21.675781 -32.109375 C 19.691406 -32.109375 18.269531 -31.296875 17.410156 -29.671875 C 16.4375 -27.828125 15.949219 -24.699219 15.949219 -20.289062 C 15.949219 -17.378906 16.164062 -15.082031 16.585938 -13.390625 C 16.972656 -11.839844 17.566406 -10.742188 18.367188 -10.09375 C 19.152344 -9.453125 20.257812 -9.132812 21.675781 -9.132812 Z M 21.675781 -7.054688 C 19.765625 -7.054688 18.226562 -7.527344 17.054688 -8.476562 C 15.898438 -9.417969 15.066406 -10.886719 14.566406 -12.886719 C 14.105469 -14.742188 13.871094 -17.210938 13.871094 -20.289062 C 13.871094 -25.042969 14.4375 -28.492188 15.570312 -30.640625 C 16.820312 -33.003906 18.855469 -34.1875 21.675781 -34.1875 C 24.460938 -34.1875 26.46875 -33.003906 27.695312 -30.632812 C 28.808594 -28.488281 29.367188 -25.039062 29.367188 -20.289062 C 29.367188 -17.210938 29.132812 -14.742188 28.667969 -12.886719 C 28.171875 -10.890625 27.351562 -9.421875 26.214844 -8.484375 C 25.0625 -7.53125 23.550781 -7.054688 21.675781 -7.054688 Z M 21.675781 -7.054688 "/></g></g><g style="fill:#ffffff;fill-opacity:1;"><g transform="translate(248.575872, 254.924484)"><path style="stroke:none" d="M 39.789062 -2.238281 C 39.933594 -1.945312 40.007812 -1.585938 40.007812 -1.164062 C 40.007812 -0.5625 39.816406 -0.0507812 39.429688 0.371094 C 39.019531 0.816406 38.496094 1.039062 37.859375 1.039062 L 27.105469 1.039062 C 26.480469 1.039062 25.949219 0.871094 25.511719 0.53125 C 25.085938 0.195312 24.785156 -0.273438 24.609375 -0.878906 L 25.609375 -1.164062 L 24.632812 -0.808594 L 19.421875 -15.109375 C 19.402344 -15.164062 19.371094 -15.203125 19.328125 -15.226562 C 19.230469 -15.285156 19.015625 -15.3125 18.679688 -15.3125 L 16.128906 -15.3125 C 16.253906 -15.3125 16.367188 -15.378906 16.464844 -15.507812 L 16.460938 -15.511719 C 16.492188 -15.578125 16.503906 -15.65625 16.503906 -15.742188 L 16.503906 -1.609375 C 16.503906 -0.6875 16.230469 0 15.675781 0.445312 C 15.191406 0.839844 14.511719 1.039062 13.636719 1.039062 L 4.324219 1.039062 C 3.464844 1.039062 2.832031 0.816406 2.421875 0.371094 C 2.035156 -0.0507812 1.84375 -0.636719 1.84375 -1.386719 L 1.84375 -39.855469 C 1.84375 -40.53125 2.011719 -41.070312 2.34375 -41.472656 C 2.726562 -41.9375 3.257812 -42.171875 3.9375 -42.171875 L 22.449219 -42.171875 C 28.027344 -42.171875 32.378906 -41.082031 35.515625 -38.910156 C 38.769531 -36.652344 40.398438 -33.472656 40.398438 -29.378906 C 40.398438 -26.617188 39.664062 -24.148438 38.195312 -21.980469 C 36.722656 -19.800781 34.8125 -18.265625 32.464844 -17.375 L 32.09375 -18.347656 L 32.558594 -17.417969 C 32.628906 -17.453125 32.6875 -17.511719 32.738281 -17.589844 C 32.78125 -17.664062 32.800781 -17.730469 32.800781 -17.792969 C 32.800781 -17.8125 32.800781 -17.828125 32.800781 -17.835938 C 32.800781 -17.832031 32.800781 -17.824219 32.804688 -17.8125 C 32.816406 -17.761719 32.835938 -17.699219 32.859375 -17.625 L 31.875 -17.296875 L 32.820312 -17.722656 L 39.804688 -2.199219 L 38.859375 -1.773438 Z M 37.917969 -1.328125 L 30.902344 -16.917969 L 30.886719 -16.964844 C 30.777344 -17.292969 30.722656 -17.570312 30.722656 -17.792969 C 30.722656 -18.480469 31.027344 -18.976562 31.628906 -19.277344 L 31.675781 -19.300781 L 31.726562 -19.320312 C 33.664062 -20.054688 35.246094 -21.328125 36.472656 -23.144531 C 37.703125 -24.960938 38.316406 -27.042969 38.316406 -29.378906 C 38.316406 -32.75 36.988281 -35.355469 34.328125 -37.199219 C 31.550781 -39.128906 27.589844 -40.089844 22.449219 -40.089844 L 3.9375 -40.089844 C 3.894531 -40.089844 3.871094 -40.089844 3.863281 -40.085938 C 3.894531 -40.101562 3.921875 -40.121094 3.945312 -40.148438 L 3.949219 -40.136719 C 3.929688 -40.070312 3.921875 -39.976562 3.921875 -39.855469 L 3.921875 -1.386719 C 3.921875 -1.242188 3.933594 -1.132812 3.957031 -1.050781 C 3.960938 -1.03125 3.96875 -1.019531 3.972656 -1.011719 C 3.96875 -1.019531 3.960938 -1.027344 3.953125 -1.035156 C 3.929688 -1.058594 3.910156 -1.078125 3.886719 -1.089844 C 3.890625 -1.089844 3.898438 -1.085938 3.914062 -1.082031 C 4.011719 -1.054688 4.144531 -1.039062 4.324219 -1.039062 L 13.636719 -1.039062 C 14.019531 -1.039062 14.261719 -1.082031 14.367188 -1.167969 C 14.359375 -1.164062 14.355469 -1.160156 14.355469 -1.15625 C 14.359375 -1.164062 14.367188 -1.179688 14.375 -1.199219 C 14.410156 -1.296875 14.425781 -1.429688 14.425781 -1.609375 L 14.425781 -15.742188 C 14.425781 -16.085938 14.550781 -16.421875 14.800781 -16.753906 C 15.121094 -17.179688 15.5625 -17.390625 16.128906 -17.390625 L 18.679688 -17.390625 C 19.382812 -17.390625 19.941406 -17.273438 20.359375 -17.035156 C 20.835938 -16.761719 21.175781 -16.359375 21.375 -15.820312 L 26.597656 -1.484375 L 26.609375 -1.449219 C 26.65625 -1.277344 26.71875 -1.167969 26.789062 -1.113281 C 26.851562 -1.0625 26.957031 -1.039062 27.105469 -1.039062 L 37.859375 -1.039062 C 37.890625 -1.039062 37.90625 -1.039062 37.914062 -1.042969 C 37.90625 -1.039062 37.898438 -1.039062 37.898438 -1.035156 C 37.917969 -1.058594 37.929688 -1.101562 37.929688 -1.164062 C 37.929688 -1.230469 37.925781 -1.285156 37.917969 -1.324219 C 37.917969 -1.332031 37.917969 -1.335938 37.914062 -1.339844 C 37.917969 -1.332031 37.921875 -1.320312 37.929688 -1.308594 Z M 21.953125 -25.652344 C 23.078125 -25.652344 23.921875 -25.917969 24.476562 -26.445312 C 25.019531 -26.960938 25.289062 -27.679688 25.289062 -28.601562 C 25.289062 -29.648438 24.960938 -30.445312 24.304688 -30.992188 C 23.59375 -31.589844 22.699219 -31.886719 21.617188 -31.886719 L 16.742188 -31.886719 C 16.585938 -31.886719 16.464844 -31.878906 16.382812 -31.855469 C 16.367188 -31.851562 16.359375 -31.851562 16.359375 -31.851562 C 16.386719 -31.863281 16.410156 -31.878906 16.4375 -31.90625 C 16.484375 -31.945312 16.511719 -31.984375 16.523438 -32.019531 C 16.511719 -31.980469 16.503906 -31.914062 16.503906 -31.816406 L 16.503906 -25.777344 C 16.503906 -25.648438 16.511719 -25.546875 16.53125 -25.472656 C 16.535156 -25.453125 16.535156 -25.445312 16.539062 -25.4375 C 16.535156 -25.449219 16.523438 -25.464844 16.511719 -25.484375 C 16.453125 -25.570312 16.382812 -25.628906 16.304688 -25.65625 L 16.308594 -25.65625 C 16.332031 -25.652344 16.367188 -25.652344 16.40625 -25.652344 Z M 21.953125 -23.574219 L 16.40625 -23.574219 C 15.675781 -23.574219 15.144531 -23.8125 14.808594 -24.292969 C 14.554688 -24.65625 14.425781 -25.152344 14.425781 -25.777344 L 14.425781 -31.816406 C 14.425781 -32.535156 14.632812 -33.078125 15.046875 -33.449219 C 15.429688 -33.792969 15.996094 -33.964844 16.742188 -33.964844 L 21.617188 -33.964844 C 23.199219 -33.964844 24.539062 -33.507812 25.640625 -32.585938 C 26.792969 -31.621094 27.371094 -30.292969 27.371094 -28.601562 C 27.371094 -27.085938 26.882812 -25.867188 25.910156 -24.941406 C 24.953125 -24.027344 23.632812 -23.574219 21.953125 -23.574219 Z M 21.953125 -23.574219 "/></g></g><g style="fill:#ffffff;fill-opacity:1;"><g transform="translate(289.538371, 254.924484)"><path style="stroke:none" d="M 1.84375 -39.855469 C 1.84375 -40.53125 2.011719 -41.070312 2.34375 -41.472656 C 2.726562 -41.9375 3.257812 -42.171875 3.9375 -42.171875 L 33.871094 -42.171875 C 34.519531 -42.171875 35.03125 -41.953125 35.40625 -41.515625 C 35.738281 -41.128906 35.90625 -40.609375 35.90625 -39.96875 L 35.851562 -33.527344 C 35.851562 -32.753906 35.632812 -32.144531 35.199219 -31.691406 C 34.753906 -31.230469 34.144531 -31 33.371094 -31 L 16.742188 -31 C 16.621094 -31 16.527344 -30.992188 16.457031 -30.972656 L 16.445312 -30.976562 C 16.476562 -31 16.496094 -31.027344 16.507812 -31.058594 C 16.507812 -31.050781 16.503906 -31.027344 16.503906 -30.988281 L 16.503906 -26.273438 C 16.503906 -26.199219 16.511719 -26.140625 16.523438 -26.101562 L 16.527344 -26.097656 C 16.523438 -26.101562 16.519531 -26.109375 16.511719 -26.113281 C 16.5 -26.125 16.488281 -26.136719 16.464844 -26.144531 L 16.464844 -26.148438 L 26.441406 -26.148438 C 27.105469 -26.148438 27.636719 -25.960938 28.03125 -25.585938 C 28.441406 -25.195312 28.644531 -24.667969 28.644531 -24.003906 L 28.644531 -17.128906 C 28.644531 -16.515625 28.453125 -16.027344 28.070312 -15.667969 C 27.703125 -15.320312 27.214844 -15.148438 26.609375 -15.148438 L 16.339844 -15.148438 C 16.363281 -15.15625 16.386719 -15.171875 16.40625 -15.1875 C 16.472656 -15.246094 16.503906 -15.320312 16.503906 -15.410156 L 16.503906 -9.867188 C 16.503906 -9.796875 16.507812 -9.75 16.515625 -9.722656 C 16.5 -9.785156 16.464844 -9.851562 16.402344 -9.921875 C 16.320312 -10.023438 16.222656 -10.089844 16.117188 -10.125 C 16.101562 -10.128906 16.089844 -10.132812 16.085938 -10.132812 C 16.09375 -10.132812 16.109375 -10.128906 16.128906 -10.128906 L 34.144531 -10.128906 C 34.8125 -10.128906 35.34375 -9.957031 35.742188 -9.613281 C 36.183594 -9.230469 36.40625 -8.707031 36.40625 -8.039062 L 36.40625 -1.21875 C 36.40625 -0.5625 36.191406 -0.0234375 35.769531 0.402344 C 35.34375 0.828125 34.765625 1.039062 34.035156 1.039062 L 4.378906 1.039062 C 3.539062 1.039062 2.90625 0.828125 2.480469 0.402344 C 2.054688 -0.0234375 1.84375 -0.617188 1.84375 -1.386719 Z M 3.921875 -39.855469 L 3.921875 -1.386719 C 3.921875 -1.253906 3.933594 -1.148438 3.957031 -1.074219 L 3.949219 -1.066406 C 3.933594 -1.082031 3.921875 -1.09375 3.910156 -1.101562 C 3.917969 -1.09375 3.933594 -1.089844 3.957031 -1.082031 C 4.058594 -1.054688 4.199219 -1.039062 4.378906 -1.039062 L 34.035156 -1.039062 C 34.144531 -1.039062 34.230469 -1.050781 34.289062 -1.070312 L 34.296875 -1.066406 C 34.316406 -1.085938 34.328125 -1.136719 34.328125 -1.21875 L 34.328125 -8.039062 C 34.328125 -8.085938 34.324219 -8.113281 34.320312 -8.125 C 34.332031 -8.09375 34.351562 -8.066406 34.382812 -8.039062 C 34.390625 -8.03125 34.402344 -8.023438 34.410156 -8.019531 C 34.410156 -8.019531 34.402344 -8.023438 34.390625 -8.027344 C 34.332031 -8.042969 34.25 -8.050781 34.144531 -8.050781 L 16.128906 -8.050781 C 15.546875 -8.050781 15.105469 -8.230469 14.804688 -8.589844 C 14.550781 -8.894531 14.425781 -9.320312 14.425781 -9.867188 L 14.425781 -15.410156 C 14.425781 -15.941406 14.625 -16.386719 15.023438 -16.742188 C 15.386719 -17.0625 15.832031 -17.226562 16.351562 -17.226562 L 26.609375 -17.226562 C 26.667969 -17.226562 26.707031 -17.230469 26.730469 -17.238281 C 26.703125 -17.226562 26.675781 -17.207031 26.640625 -17.175781 C 26.601562 -17.140625 26.578125 -17.101562 26.5625 -17.0625 C 26.566406 -17.066406 26.566406 -17.089844 26.566406 -17.128906 L 26.566406 -24.003906 C 26.566406 -24.070312 26.5625 -24.117188 26.550781 -24.144531 C 26.558594 -24.125 26.574219 -24.105469 26.597656 -24.082031 C 26.617188 -24.0625 26.628906 -24.054688 26.636719 -24.050781 C 26.59375 -24.066406 26.527344 -24.070312 26.441406 -24.070312 L 16.464844 -24.070312 C 15.859375 -24.070312 15.363281 -24.285156 14.972656 -24.714844 C 14.609375 -25.117188 14.425781 -25.636719 14.425781 -26.273438 L 14.425781 -30.988281 C 14.425781 -31.664062 14.660156 -32.195312 15.121094 -32.578125 C 15.527344 -32.914062 16.066406 -33.078125 16.742188 -33.078125 L 33.371094 -33.078125 C 33.554688 -33.078125 33.667969 -33.097656 33.703125 -33.136719 C 33.75 -33.183594 33.773438 -33.320312 33.773438 -33.546875 L 33.828125 -39.96875 C 33.828125 -40.0625 33.820312 -40.136719 33.804688 -40.191406 L 33.800781 -40.199219 C 33.808594 -40.1875 33.816406 -40.175781 33.828125 -40.164062 C 33.859375 -40.128906 33.890625 -40.105469 33.929688 -40.089844 L 33.933594 -40.085938 C 33.917969 -40.089844 33.894531 -40.089844 33.871094 -40.089844 L 3.9375 -40.089844 C 3.894531 -40.089844 3.871094 -40.089844 3.863281 -40.085938 C 3.894531 -40.101562 3.921875 -40.121094 3.945312 -40.148438 L 3.949219 -40.136719 C 3.929688 -40.070312 3.921875 -39.976562 3.921875 -39.855469 Z M 3.921875 -39.855469 "/></g></g><g style="fill:#ffffff;fill-opacity:1;"><g transform="translate(127.462129, 149.958609)"><path style="stroke:none" d="M 3.5 0 C 3.195312 0 2.941406 -0.0976562 2.734375 -0.296875 C 2.535156 -0.503906 2.4375 -0.75 2.4375 -1.03125 L 2.4375 -33.484375 C 2.4375 -33.828125 2.546875 -34.113281 2.765625 -34.34375 C 2.984375 -34.582031 3.257812 -34.703125 3.59375 -34.703125 L 17.53125 -34.703125 C 22.394531 -34.703125 26.082031 -33.925781 28.59375 -32.375 C 31.101562 -30.832031 32.359375 -28.550781 32.359375 -25.53125 C 32.359375 -23.882812 31.90625 -22.488281 31 -21.34375 C 30.101562 -20.207031 28.515625 -19.109375 26.234375 -18.046875 C 26.171875 -18.015625 26.140625 -17.957031 26.140625 -17.875 C 26.140625 -17.800781 26.171875 -17.75 26.234375 -17.71875 C 28.765625 -16.789062 30.554688 -15.6875 31.609375 -14.40625 C 32.671875 -13.125 33.203125 -11.472656 33.203125 -9.453125 C 33.203125 -6.234375 31.976562 -3.851562 29.53125 -2.3125 C 27.082031 -0.769531 23.332031 0 18.28125 0 Z M 18.28125 -21.140625 C 19.375 -21.140625 20.25 -21.4375 20.90625 -22.03125 C 21.5625 -22.625 21.890625 -23.382812 21.890625 -24.3125 C 21.890625 -25.3125 21.515625 -26.125 20.765625 -26.75 C 20.015625 -27.375 19.078125 -27.6875 17.953125 -27.6875 L 14.125 -27.6875 C 13.71875 -27.6875 13.4375 -27.613281 13.28125 -27.46875 C 13.125 -27.332031 13.046875 -27.09375 13.046875 -26.75 L 13.046875 -22.171875 C 13.046875 -21.796875 13.109375 -21.53125 13.234375 -21.375 C 13.359375 -21.21875 13.5625 -21.140625 13.84375 -21.140625 Z M 18.046875 -7.015625 C 19.328125 -7.015625 20.332031 -7.375 21.0625 -8.09375 C 21.800781 -8.8125 22.171875 -9.648438 22.171875 -10.609375 C 22.171875 -11.578125 21.8125 -12.375 21.09375 -13 C 20.375 -13.625 19.4375 -13.9375 18.28125 -13.9375 L 14.125 -13.9375 C 13.71875 -13.9375 13.4375 -13.859375 13.28125 -13.703125 C 13.125 -13.546875 13.046875 -13.296875 13.046875 -12.953125 L 13.046875 -8.046875 C 13.046875 -7.671875 13.109375 -7.40625 13.234375 -7.25 C 13.359375 -7.09375 13.5625 -7.015625 13.84375 -7.015625 Z M 18.046875 -7.015625 "/></g></g><g style="fill:#ffffff;fill-opacity:1;"><g transform="translate(162.0162, 149.958609)"><path style="stroke:none" d="M 2.015625 0 C 1.765625 0 1.5625 -0.0820312 1.40625 -0.25 C 1.25 -0.425781 1.171875 -0.671875 1.171875 -0.984375 C 1.171875 -1.203125 1.21875 -1.453125 1.3125 -1.734375 L 12.625 -33.625 C 12.78125 -34.03125 12.953125 -34.3125 13.140625 -34.46875 C 13.328125 -34.625 13.625 -34.703125 14.03125 -34.703125 L 23.25 -34.703125 C 23.613281 -34.703125 23.941406 -34.582031 24.234375 -34.34375 C 24.535156 -34.113281 24.765625 -33.8125 24.921875 -33.4375 L 36.15625 -1.59375 C 36.21875 -1.34375 36.25 -1.15625 36.25 -1.03125 C 36.25 -0.75 36.1875 -0.503906 36.0625 -0.296875 C 35.9375 -0.0976562 35.75 0 35.5 0 L 26.328125 0 C 25.796875 0 25.453125 -0.265625 25.296875 -0.796875 L 23.46875 -6.171875 C 23.382812 -6.390625 23.300781 -6.535156 23.21875 -6.609375 C 23.144531 -6.691406 23 -6.734375 22.78125 -6.734375 L 12.859375 -6.734375 C 12.484375 -6.734375 12.25 -6.5625 12.15625 -6.21875 L 10.234375 -0.703125 C 10.054688 -0.234375 9.6875 0 9.125 0 Z M 20.4375 -14.6875 C 20.78125 -14.6875 20.953125 -14.84375 20.953125 -15.15625 C 20.953125 -15.21875 20.921875 -15.375 20.859375 -15.625 L 18.046875 -23.609375 C 17.984375 -23.765625 17.890625 -23.84375 17.765625 -23.84375 C 17.640625 -23.84375 17.546875 -23.765625 17.484375 -23.609375 L 14.640625 -15.671875 C 14.578125 -15.546875 14.546875 -15.390625 14.546875 -15.203125 C 14.546875 -14.859375 14.734375 -14.6875 15.109375 -14.6875 Z M 20.4375 -14.6875 "/></g></g><g style="fill:#ffffff;fill-opacity:1;"><g transform="translate(199.375744, 149.958609)"><path style="stroke:none" d="M 23.109375 -25.390625 C 22.359375 -26.203125 21.550781 -26.828125 20.6875 -27.265625 C 19.832031 -27.703125 18.59375 -27.921875 16.96875 -27.921875 C 15.351562 -27.921875 14.15625 -27.6875 13.375 -27.21875 C 12.59375 -26.75 12.203125 -26.1875 12.203125 -25.53125 C 12.203125 -24.40625 13.203125 -23.613281 15.203125 -23.15625 L 22.96875 -21.140625 C 25.800781 -20.421875 27.929688 -19.164062 29.359375 -17.375 C 30.796875 -15.582031 31.515625 -13.4375 31.515625 -10.9375 C 31.515625 -8.632812 30.90625 -6.625 29.6875 -4.90625 C 28.476562 -3.195312 26.742188 -1.875 24.484375 -0.9375 C 22.222656 0 19.582031 0.46875 16.5625 0.46875 C 13.125 0.46875 9.992188 -0.0976562 7.171875 -1.234375 C 4.359375 -2.378906 2.40625 -3.867188 1.3125 -5.703125 C 1.15625 -6.015625 1.078125 -6.25 1.078125 -6.40625 C 1.078125 -6.71875 1.25 -7 1.59375 -7.25 L 6.40625 -10.5625 C 6.75 -10.78125 7.0625 -10.890625 7.34375 -10.890625 C 7.6875 -10.890625 7.96875 -10.75 8.1875 -10.46875 C 9.25 -9.101562 10.320312 -8.140625 11.40625 -7.578125 C 12.5 -7.015625 13.953125 -6.734375 15.765625 -6.734375 C 17.503906 -6.734375 18.878906 -6.972656 19.890625 -7.453125 C 20.910156 -7.941406 21.421875 -8.609375 21.421875 -9.453125 C 21.421875 -10.035156 21.171875 -10.546875 20.671875 -10.984375 C 20.171875 -11.421875 19.4375 -11.75 18.46875 -11.96875 L 11.359375 -13.703125 C 8.554688 -14.390625 6.328125 -15.675781 4.671875 -17.5625 C 3.023438 -19.445312 2.203125 -21.617188 2.203125 -24.078125 C 2.203125 -26.109375 2.789062 -27.972656 3.96875 -29.671875 C 5.15625 -31.367188 6.835938 -32.707031 9.015625 -33.6875 C 11.203125 -34.675781 13.734375 -35.171875 16.609375 -35.171875 C 19.410156 -35.171875 22.007812 -34.707031 24.40625 -33.78125 C 26.8125 -32.863281 28.546875 -31.640625 29.609375 -30.109375 C 29.828125 -29.835938 29.9375 -29.578125 29.9375 -29.328125 C 29.9375 -29.109375 29.828125 -28.90625 29.609375 -28.71875 L 24.5 -25.015625 C 24.34375 -24.890625 24.171875 -24.828125 23.984375 -24.828125 C 23.765625 -24.828125 23.472656 -25.015625 23.109375 -25.390625 Z M 23.109375 -25.390625 "/></g></g><g style="fill:#ffffff;fill-opacity:1;"><g transform="translate(232.153017, 149.958609)"><path style="stroke:none" d="M 3.640625 0 C 3.273438 0 2.984375 -0.113281 2.765625 -0.34375 C 2.546875 -0.582031 2.4375 -0.90625 2.4375 -1.3125 L 2.4375 -33.625 C 2.4375 -34 2.515625 -34.269531 2.671875 -34.4375 C 2.828125 -34.613281 3.070312 -34.703125 3.40625 -34.703125 L 16.515625 -34.703125 C 16.910156 -34.703125 17.191406 -34.644531 17.359375 -34.53125 C 17.535156 -34.425781 17.6875 -34.203125 17.8125 -33.859375 L 22.6875 -18.984375 C 22.78125 -18.734375 22.890625 -18.609375 23.015625 -18.609375 C 23.109375 -18.609375 23.203125 -18.734375 23.296875 -18.984375 L 27.640625 -33.34375 C 27.890625 -34.25 28.3125 -34.703125 28.90625 -34.703125 L 42.421875 -34.703125 C 42.984375 -34.703125 43.265625 -34.375 43.265625 -33.71875 L 43.265625 -1.359375 C 43.265625 -0.859375 43.144531 -0.503906 42.90625 -0.296875 C 42.675781 -0.0976562 42.296875 0 41.765625 0 L 33.859375 0 C 33.390625 0 33.066406 -0.09375 32.890625 -0.28125 C 32.722656 -0.46875 32.640625 -0.765625 32.640625 -1.171875 L 32.640625 -22.171875 C 32.640625 -22.421875 32.578125 -22.546875 32.453125 -22.546875 C 32.296875 -22.546875 32.171875 -22.40625 32.078125 -22.125 L 25.34375 -0.84375 C 25.125 -0.28125 24.75 0 24.21875 0 L 19.3125 0 C 18.75 0 18.375 -0.28125 18.1875 -0.84375 L 11.453125 -21.75 C 11.359375 -22.0625 11.25 -22.21875 11.125 -22.21875 C 10.96875 -22.21875 10.890625 -22.046875 10.890625 -21.703125 L 10.890625 -1.03125 C 10.890625 -0.625 10.828125 -0.347656 10.703125 -0.203125 C 10.578125 -0.0664062 10.300781 0 9.875 0 Z M 3.640625 0 "/></g></g><g style="fill:#ffffff;fill-opacity:1;"><g transform="translate(277.835459, 149.958609)"><path style="stroke:none" d="M 2.015625 0 C 1.765625 0 1.5625 -0.0820312 1.40625 -0.25 C 1.25 -0.425781 1.171875 -0.671875 1.171875 -0.984375 C 1.171875 -1.203125 1.21875 -1.453125 1.3125 -1.734375 L 12.625 -33.625 C 12.78125 -34.03125 12.953125 -34.3125 13.140625 -34.46875 C 13.328125 -34.625 13.625 -34.703125 14.03125 -34.703125 L 23.25 -34.703125 C 23.613281 -34.703125 23.941406 -34.582031 24.234375 -34.34375 C 24.535156 -34.113281 24.765625 -33.8125 24.921875 -33.4375 L 36.15625 -1.59375 C 36.21875 -1.34375 36.25 -1.15625 36.25 -1.03125 C 36.25 -0.75 36.1875 -0.503906 36.0625 -0.296875 C 35.9375 -0.0976562 35.75 0 35.5 0 L 26.328125 0 C 25.796875 0 25.453125 -0.265625 25.296875 -0.796875 L 23.46875 -6.171875 C 23.382812 -6.390625 23.300781 -6.535156 23.21875 -6.609375 C 23.144531 -6.691406 23 -6.734375 22.78125 -6.734375 L 12.859375 -6.734375 C 12.484375 -6.734375 12.25 -6.5625 12.15625 -6.21875 L 10.234375 -0.703125 C 10.054688 -0.234375 9.6875 0 9.125 0 Z M 20.4375 -14.6875 C 20.78125 -14.6875 20.953125 -14.84375 20.953125 -15.15625 C 20.953125 -15.21875 20.921875 -15.375 20.859375 -15.625 L 18.046875 -23.609375 C 17.984375 -23.765625 17.890625 -23.84375 17.765625 -23.84375 C 17.640625 -23.84375 17.546875 -23.765625 17.484375 -23.609375 L 14.640625 -15.671875 C 14.578125 -15.546875 14.546875 -15.390625 14.546875 -15.203125 C 14.546875 -14.859375 14.734375 -14.6875 15.109375 -14.6875 Z M 20.4375 -14.6875 "/></g></g><g style="fill:#ffffff;fill-opacity:1;"><g transform="translate(315.195004, 149.958609)"><path style="stroke:none" d="M 2.8125 -19.21875 C 2.53125 -19.21875 2.328125 -19.328125 2.203125 -19.546875 C 2.078125 -19.765625 2.0625 -20 2.15625 -20.25 L 4.109375 -25.015625 C 4.234375 -25.296875 4.296875 -25.5625 4.296875 -25.8125 C 4.296875 -26.09375 4.09375 -26.28125 3.6875 -26.375 L 2.953125 -26.46875 C 2.515625 -26.53125 2.21875 -26.628906 2.0625 -26.765625 C 1.90625 -26.910156 1.828125 -27.171875 1.828125 -27.546875 L 1.828125 -33.71875 C 1.828125 -34.375 2.109375 -34.703125 2.671875 -34.703125 L 9.546875 -34.703125 C 10.066406 -34.703125 10.328125 -34.421875 10.328125 -33.859375 L 10.328125 -27.921875 C 10.328125 -27.671875 10.265625 -27.453125 10.140625 -27.265625 L 5.46875 -20.203125 C 5.28125 -19.890625 5 -19.644531 4.625 -19.46875 C 4.25 -19.300781 3.890625 -19.21875 3.546875 -19.21875 Z M 2.8125 -19.21875 "/></g></g><g style="fill:#ffffff;fill-opacity:1;"><g transform="translate(327.024738, 149.958609)"><path style="stroke:none" d="M 23.109375 -25.390625 C 22.359375 -26.203125 21.550781 -26.828125 20.6875 -27.265625 C 19.832031 -27.703125 18.59375 -27.921875 16.96875 -27.921875 C 15.351562 -27.921875 14.15625 -27.6875 13.375 -27.21875 C 12.59375 -26.75 12.203125 -26.1875 12.203125 -25.53125 C 12.203125 -24.40625 13.203125 -23.613281 15.203125 -23.15625 L 22.96875 -21.140625 C 25.800781 -20.421875 27.929688 -19.164062 29.359375 -17.375 C 30.796875 -15.582031 31.515625 -13.4375 31.515625 -10.9375 C 31.515625 -8.632812 30.90625 -6.625 29.6875 -4.90625 C 28.476562 -3.195312 26.742188 -1.875 24.484375 -0.9375 C 22.222656 0 19.582031 0.46875 16.5625 0.46875 C 13.125 0.46875 9.992188 -0.0976562 7.171875 -1.234375 C 4.359375 -2.378906 2.40625 -3.867188 1.3125 -5.703125 C 1.15625 -6.015625 1.078125 -6.25 1.078125 -6.40625 C 1.078125 -6.71875 1.25 -7 1.59375 -7.25 L 6.40625 -10.5625 C 6.75 -10.78125 7.0625 -10.890625 7.34375 -10.890625 C 7.6875 -10.890625 7.96875 -10.75 8.1875 -10.46875 C 9.25 -9.101562 10.320312 -8.140625 11.40625 -7.578125 C 12.5 -7.015625 13.953125 -6.734375 15.765625 -6.734375 C 17.503906 -6.734375 18.878906 -6.972656 19.890625 -7.453125 C 20.910156 -7.941406 21.421875 -8.609375 21.421875 -9.453125 C 21.421875 -10.035156 21.171875 -10.546875 20.671875 -10.984375 C 20.171875 -11.421875 19.4375 -11.75 18.46875 -11.96875 L 11.359375 -13.703125 C 8.554688 -14.390625 6.328125 -15.675781 4.671875 -17.5625 C 3.023438 -19.445312 2.203125 -21.617188 2.203125 -24.078125 C 2.203125 -26.109375 2.789062 -27.972656 3.96875 -29.671875 C 5.15625 -31.367188 6.835938 -32.707031 9.015625 -33.6875 C 11.203125 -34.675781 13.734375 -35.171875 16.609375 -35.171875 C 19.410156 -35.171875 22.007812 -34.707031 24.40625 -33.78125 C 26.8125 -32.863281 28.546875 -31.640625 29.609375 -30.109375 C 29.828125 -29.835938 29.9375 -29.578125 29.9375 -29.328125 C 29.9375 -29.109375 29.828125 -28.90625 29.609375 -28.71875 L 24.5 -25.015625 C 24.34375 -24.890625 24.171875 -24.828125 23.984375 -24.828125 C 23.765625 -24.828125 23.472656 -25.015625 23.109375 -25.390625 Z M 23.109375 -25.390625 "/></g></g></g></svg>